ply
format ascii 1.0
comment Created by Blender 2.79 (sub 0) - www.blender.org, source file: 'triplane.blend'
element vertex 81
property float x
property float y
property float z
property float nx
property float ny
property float nz
element face 128
property list uchar uint vertex_indices
end_header
1.000000 -1.000000 0.000000 -0.000000 0.000000 1.000000
0.750000 -0.750000 0.000000 -0.000000 0.000000 1.000000
0.750000 -1.000000 0.000000 -0.000000 0.000000 1.000000
1.000000 -0.750000 0.000000 -0.000000 0.000000 1.000000
0.000000 0.000000 0.000000 -0.000000 0.000000 1.000000
0.000000 0.250000 0.000000 -0.000000 0.000000 1.000000
-0.250000 0.250000 0.000000 -0.000000 0.000000 1.000000
0.250000 0.000000 0.000000 0.000000 0.000000 1.000000
1.000000 0.000000 0.000000 -0.000000 0.000000 1.000000
1.000000 0.250000 0.000000 -0.000000 0.000000 1.000000
0.750000 0.250000 0.000000 -0.000000 0.000000 1.000000
0.000000 -1.000000 0.000000 -0.000000 0.000000 1.000000
-0.250000 -0.750000 0.000000 -0.000000 0.000000 1.000000
-0.250000 -1.000000 0.000000 -0.000000 0.000000 1.000000
0.000000 -0.750000 0.000000 -0.000000 0.000000 1.000000
-0.250000 0.000000 0.000000 -0.000000 0.000000 1.000000
-0.500000 0.000000 0.000000 -0.000000 0.000000 1.000000
-0.750000 0.250000 0.000000 -0.000000 0.000000 1.000000
-0.750000 0.000000 0.000000 -0.000000 0.000000 1.000000
-0.500000 0.250000 0.000000 -0.000000 0.000000 1.000000
-0.500000 0.500000 0.000000 -0.000000 0.000000 1.000000
-0.750000 0.750000 0.000000 -0.000000 0.000000 1.000000
-0.750000 0.500000 0.000000 -0.000000 0.000000 1.000000
-0.500000 -0.500000 0.000000 -0.000000 0.000000 1.000000
-0.500000 -0.250000 0.000000 -0.000000 0.000000 1.000000
-0.750000 -0.250000 0.000000 -0.000000 0.000000 1.000000
-0.250000 -0.500000 0.000000 0.000000 0.000000 1.000000
0.000000 -0.500000 0.000000 -0.000000 0.000000 1.000000
0.000000 -0.250000 0.000000 -0.000000 0.000000 1.000000
-0.250000 -0.250000 0.000000 -0.000000 0.000000 1.000000
-0.500000 -1.000000 0.000000 -0.000000 0.000000 1.000000
-0.750000 -0.750000 0.000000 -0.000000 0.000000 1.000000
-0.750000 -1.000000 0.000000 -0.000000 0.000000 1.000000
-0.500000 -0.750000 0.000000 -0.000000 0.000000 1.000000
-0.750000 -0.500000 0.000000 -0.000000 0.000000 1.000000
0.500000 0.500000 0.000000 -0.000000 0.000000 1.000000
0.500000 0.750000 0.000000 -0.000000 0.000000 1.000000
0.250000 0.750000 0.000000 -0.000000 0.000000 1.000000
0.750000 0.500000 0.000000 0.000000 0.000000 1.000000
1.000000 0.500000 0.000000 -0.000000 0.000000 1.000000
1.000000 0.750000 0.000000 -0.000000 0.000000 1.000000
0.750000 0.750000 0.000000 -0.000000 0.000000 1.000000
0.000000 0.500000 0.000000 0.000000 0.000000 1.000000
0.250000 0.500000 0.000000 0.000000 0.000000 1.000000
0.000000 0.750000 0.000000 0.000000 0.000000 1.000000
0.250000 0.250000 0.000000 0.000000 0.000000 1.000000
0.500000 0.000000 0.000000 0.000000 0.000000 1.000000
0.750000 0.000000 0.000000 0.000000 0.000000 1.000000
0.500000 0.250000 0.000000 0.000000 0.000000 1.000000
-0.500000 0.750000 0.000000 -0.000000 0.000000 1.000000
-0.250000 0.500000 0.000000 0.000000 0.000000 1.000000
-0.250000 0.750000 0.000000 -0.000000 0.000000 1.000000
0.500000 -0.500000 0.000000 -0.000000 0.000000 1.000000
0.500000 -0.250000 0.000000 -0.000000 0.000000 1.000000
0.250000 -0.250000 0.000000 -0.000000 0.000000 1.000000
0.750000 -0.500000 0.000000 0.000000 0.000000 1.000000
1.000000 -0.500000 0.000000 -0.000000 0.000000 1.000000
1.000000 -0.250000 0.000000 -0.000000 0.000000 1.000000
0.750000 -0.250000 0.000000 -0.000000 0.000000 1.000000
0.500000 -1.000000 0.000000 -0.000000 0.000000 1.000000
0.250000 -0.750000 0.000000 -0.000000 0.000000 1.000000
0.250000 -1.000000 0.000000 -0.000000 0.000000 1.000000
0.500000 -0.750000 0.000000 -0.000000 0.000000 1.000000
0.250000 -0.500000 0.000000 -0.000000 0.000000 1.000000
-0.250000 1.000000 0.000000 -0.000000 0.000000 1.000000
-0.500000 1.000000 0.000000 -0.000000 0.000000 1.000000
0.000000 1.000000 0.000000 -0.000000 0.000000 1.000000
-0.750000 1.000000 0.000000 -0.000000 0.000000 1.000000
-1.000000 1.000000 0.000000 -0.000000 0.000000 1.000000
0.750000 1.000000 0.000000 -0.000000 0.000000 1.000000
0.500000 1.000000 0.000000 -0.000000 0.000000 1.000000
1.000000 1.000000 0.000000 -0.000000 0.000000 1.000000
0.250000 1.000000 0.000000 -0.000000 0.000000 1.000000
-1.000000 -0.250000 0.000000 -0.000000 0.000000 1.000000
-1.000000 -0.500000 0.000000 -0.000000 0.000000 1.000000
-1.000000 0.000000 0.000000 -0.000000 0.000000 1.000000
-1.000000 -0.750000 0.000000 -0.000000 0.000000 1.000000
-1.000000 -1.000000 0.000000 -0.000000 0.000000 1.000000
-1.000000 0.750000 0.000000 -0.000000 0.000000 1.000000
-1.000000 0.500000 0.000000 -0.000000 0.000000 1.000000
-1.000000 0.250000 0.000000 -0.000000 0.000000 1.000000
3 0 1 2
3 0 3 1
3 4 5 6
3 4 7 5
3 8 9 10
3 11 12 13
3 11 14 12
3 4 6 15
3 16 17 18
3 16 19 17
3 20 21 22
3 23 24 25
3 23 26 24
3 27 28 29
3 30 31 32
3 30 33 31
3 23 25 34
3 35 36 37
3 35 38 36
3 39 40 41
3 42 43 44
3 42 45 43
3 46 47 48
3 20 49 21
3 20 50 49
3 42 44 51
3 52 53 54
3 52 55 53
3 56 57 58
3 59 60 61
3 59 62 60
3 52 54 63
3 63 28 27
3 63 54 28
3 54 4 28
3 60 63 27
3 60 62 63
3 62 52 63
3 61 14 11
3 61 60 14
3 60 27 14
3 58 47 46
3 58 57 47
3 57 8 47
3 53 58 46
3 53 55 58
3 55 56 58
3 54 7 4
3 54 53 7
3 53 46 7
3 51 64 65
3 51 44 64
3 44 66 64
3 49 51 65
3 49 50 51
3 50 42 51
3 21 67 68
3 21 49 67
3 49 65 67
3 48 10 35
3 48 47 10
3 47 8 10
3 43 48 35
3 43 45 48
3 45 46 48
3 44 37 66
3 44 43 37
3 43 35 37
3 41 69 70
3 41 40 69
3 40 71 69
3 36 41 70
3 36 38 41
3 38 39 41
3 37 72 66
3 37 36 72
3 36 70 72
3 34 73 74
3 34 25 73
3 25 75 73
3 31 34 74
3 31 33 34
3 33 23 34
3 32 76 77
3 32 31 76
3 31 74 76
3 29 15 16
3 29 28 15
3 28 4 15
3 24 29 16
3 24 26 29
3 26 27 29
3 25 18 75
3 25 24 18
3 24 16 18
3 22 78 79
3 22 21 78
3 21 68 78
3 17 22 79
3 17 19 22
3 19 20 22
3 18 80 75
3 18 17 80
3 17 79 80
3 15 19 16
3 15 6 19
3 6 20 19
3 12 26 23
3 12 14 26
3 14 27 26
3 13 33 30
3 13 12 33
3 12 23 33
3 10 38 35
3 10 9 38
3 9 39 38
3 5 45 42
3 5 7 45
3 7 46 45
3 6 50 20
3 6 5 50
3 5 42 50
3 1 55 52
3 1 3 55
3 3 56 55
3 2 62 59
3 2 1 62
3 1 52 62
